<svg width="140" height="140" viewBox="0 0 140 140" fill="none" xmlns="http://www.w3.org/2000/svg">
<path fill-rule="evenodd" clip-rule="evenodd" d="M58.0306 70.9129L9.47418 61.4832C2.67554 60.1629 -1.38858 53.1396 0.854401 46.5872C3.09741 40.035 10.6131 36.9755 16.7946 40.0987L62.0712 62.9738L33.7795 21.0455C29.9057 15.3045 31.9982 7.46453 38.2174 4.41729C44.4367 1.37017 51.9143 4.52129 54.0769 11.1006L69.6036 58.3373L79.0566 9.66106C80.3768 2.86248 87.4002 -1.20173 93.9525 1.04131C100.505 3.28423 103.564 10.8 100.441 16.9814L77.9706 61.4568L119.557 33.396C125.298 29.5224 133.138 31.6148 136.185 37.834C139.232 44.0533 136.081 51.5309 129.502 53.6935L81.3046 69.536L130.338 79.058C137.136 80.3785 141.2 87.4017 138.957 93.954C136.714 100.506 129.199 103.566 123.017 100.443L79.5019 78.4573L106.815 118.936C110.689 124.677 108.597 132.517 102.378 135.564C96.1583 138.611 88.6806 135.46 86.518 128.881L70.9805 81.6114L61.4816 130.524C60.1614 137.323 53.138 141.387 46.5857 139.144C40.0334 136.901 36.974 129.385 40.0971 123.204L62.4871 78.8878L21.6662 106.432C15.9253 110.306 8.08527 108.213 5.03809 101.994C1.99094 95.7748 5.14209 88.2973 11.7214 86.1346L58.0306 70.9129Z" fill="#111111"/>
</svg>
